<?xml version="1.0" standalone="no"?>
<svg xmlns="http://www.w3.org/2000/svg" viewBox="0 0 157.7 29" width="157.7" height="29"><path fill="#ff4a00" fill-rule="nonzero" d="M6.38 17.88Q3.34 17.88 0.67 16.73L0.67 16.73Q0.38 16.61 0.19 16.33Q0 16.06 0 15.74L0 15.74Q0 15.34 0.28 15.04Q0.55 14.74 0.98 14.74L0.98 14.74Q1.22 14.74 1.44 14.83L1.44 14.83Q3.65 15.82 6.17 15.82L6.17 15.82Q10.37 15.82 10.37 13.06L10.37 13.06Q10.37 12.34 9.83 11.86Q9.29 11.38 8.50 11.10Q7.70 10.82 6.24 10.44L6.24 10.44Q4.30 9.94 3.10 9.47Q1.90 9 1.03 8.06Q0.17 7.13 0.17 5.57L0.17 5.57Q0.17 4.20 0.89 3.08Q1.61 1.97 3.01 1.31Q4.42 0.65 6.38 0.65L6.38 0.65Q9.02 0.65 11.16 1.44L11.16 1.44Q11.83 1.68 11.83 2.40L11.83 2.40Q11.83 2.78 11.57 3.10Q11.30 3.41 10.87 3.41L10.87 3.41Q10.73 3.41 10.49 3.31L10.49 3.31Q8.62 2.66 6.62 2.66L6.62 2.66Q4.73 2.66 3.54 3.38Q2.35 4.10 2.35 5.40L2.35 5.40Q2.35 6.26 2.92 6.80Q3.48 7.34 4.33 7.64Q5.18 7.94 6.65 8.28L6.65 8.28Q8.54 8.74 9.71 9.19Q10.87 9.65 11.70 10.61Q12.53 11.57 12.53 13.20L12.53 13.20Q12.53 14.54 11.76 15.61Q10.99 16.68 9.60 17.28Q8.21 17.88 6.38 17.88L6.38 17.88ZM16.34 23.28Q15.89 23.28 15.58 22.96Q15.26 22.63 15.26 22.18L15.26 22.18L15.26 6.36Q15.26 5.90 15.58 5.59Q15.89 5.28 16.34 5.28L16.34 5.28Q16.80 5.28 17.12 5.59Q17.45 5.90 17.45 6.36L17.45 6.36L17.45 6.98Q19.20 5.16 21.55 5.16L21.55 5.16Q23.04 5.16 24.37 5.92Q25.70 6.67 26.53 8.12Q27.36 9.58 27.36 11.52L27.36 11.52Q27.36 13.46 26.53 14.92Q25.70 16.37 24.37 17.12Q23.04 17.88 21.55 17.88L21.55 17.88Q19.20 17.88 17.45 16.06L17.45 16.06L17.45 22.18Q17.45 22.66 17.14 22.97Q16.82 23.28 16.34 23.28L16.34 23.28ZM21.24 15.84Q23.02 15.84 24.10 14.71Q25.18 13.58 25.18 11.52L25.18 11.52Q25.18 9.46 24.10 8.33Q23.02 7.20 21.24 7.20L21.24 7.20Q20.14 7.20 19.16 7.69Q18.19 8.18 17.45 9L17.45 9L17.45 14.04Q18.19 14.86 19.16 15.35Q20.14 15.84 21.24 15.84L21.24 15.84ZM31.44 2.90Q30.94 2.90 30.58 2.54Q30.22 2.18 30.22 1.68L30.22 1.68L30.22 1.58Q30.22 1.08 30.58 0.72Q30.94 0.36 31.44 0.36L31.44 0.36L31.58 0.36Q32.09 0.36 32.45 0.72Q32.81 1.08 32.81 1.58L32.81 1.58L32.81 1.68Q32.81 2.18 32.45 2.54Q32.09 2.90 31.58 2.90L31.58 2.90L31.44 2.90ZM31.49 17.76Q31.03 17.76 30.72 17.45Q30.41 17.14 30.41 16.68L30.41 16.68L30.41 6.38Q30.41 5.93 30.72 5.60Q31.03 5.28 31.49 5.28L31.49 5.28Q31.97 5.28 32.28 5.59Q32.59 5.90 32.59 6.38L32.59 6.38L32.59 16.68Q32.59 17.14 32.27 17.45Q31.94 17.76 31.49 17.76L31.49 17.76ZM41.86 17.88Q38.93 17.88 37.28 16.21Q35.64 14.54 35.64 11.52L35.64 11.52Q35.64 9.82 36.26 8.38Q36.89 6.94 38.18 6.05Q39.48 5.16 41.38 5.16L41.38 5.16Q43.15 5.16 44.45 5.99Q45.74 6.82 46.42 8.20Q47.09 9.58 47.09 11.21L47.09 11.21Q47.09 11.66 46.79 11.98Q46.49 12.29 45.98 12.29L45.98 12.29L37.85 12.29Q38.04 13.97 39.10 14.90Q40.15 15.84 42.05 15.84L42.05 15.84Q43.06 15.84 43.81 15.65Q44.57 15.46 45.29 15.10L45.29 15.10Q45.48 15 45.72 15L45.72 15Q46.10 15 46.39 15.26Q46.68 15.53 46.68 15.94L46.68 15.94Q46.68 16.46 46.06 16.82L46.06 16.82Q45.12 17.35 44.21 17.62Q43.30 17.88 41.86 17.88L41.86 17.88ZM37.85 10.51L44.93 10.51Q44.86 9.34 44.32 8.54Q43.78 7.75 42.98 7.38Q42.19 7.01 41.38 7.01L41.38 7.01Q40.56 7.01 39.77 7.38Q38.98 7.75 38.45 8.54Q37.92 9.34 37.85 10.51L37.85 10.51ZM51.05 17.76Q50.59 17.76 50.28 17.45Q49.97 17.14 49.97 16.68L49.97 16.68L49.97 1.10Q49.97 0.65 50.28 0.32Q50.59 0 51.05 0L51.05 0Q51.53 0 51.84 0.31Q52.15 0.62 52.15 1.10L52.15 1.10L52.15 16.68Q52.15 17.14 51.83 17.45Q51.50 17.76 51.05 17.76L51.05 17.76ZM59.59 17.76Q59.11 17.76 58.73 17.47Q58.34 17.18 58.20 16.75L58.20 16.75L54.79 6.77Q54.72 6.55 54.72 6.36L54.72 6.36Q54.72 5.90 55.03 5.59Q55.34 5.28 55.80 5.28L55.80 5.28Q56.14 5.28 56.41 5.46Q56.69 5.64 56.78 5.93L56.78 5.93L59.59 15.17L62.38 6.14Q62.50 5.76 62.82 5.52Q63.14 5.28 63.55 5.28L63.55 5.28Q63.96 5.28 64.28 5.52Q64.61 5.76 64.73 6.14L64.73 6.14L67.51 15.17L70.32 5.93Q70.42 5.64 70.69 5.46Q70.97 5.28 71.30 5.28L71.30 5.28Q71.76 5.28 72.07 5.59Q72.38 5.90 72.38 6.36L72.38 6.36Q72.38 6.55 72.31 6.77L72.31 6.77L68.90 16.75Q68.76 17.18 68.38 17.47Q67.99 17.76 67.51 17.76L67.51 17.76Q67.03 17.76 66.65 17.47Q66.26 17.18 66.10 16.73L66.10 16.73L63.55 8.78L61.01 16.73Q60.84 17.18 60.46 17.47Q60.07 17.76 59.59 17.76L59.59 17.76ZM75.98 2.90Q75.48 2.90 75.12 2.54Q74.76 2.18 74.76 1.68L74.76 1.68L74.76 1.58Q74.76 1.08 75.12 0.72Q75.48 0.36 75.98 0.36L75.98 0.36L76.13 0.36Q76.63 0.36 76.99 0.72Q77.35 1.08 77.35 1.58L77.35 1.58L77.35 1.68Q77.35 2.18 76.99 2.54Q76.63 2.90 76.13 2.90L76.13 2.90L75.98 2.90ZM76.03 17.76Q75.58 17.76 75.26 17.45Q74.95 17.14 74.95 16.68L74.95 16.68L74.95 6.38Q74.95 5.93 75.26 5.60Q75.58 5.28 76.03 5.28L76.03 5.28Q76.51 5.28 76.82 5.59Q77.14 5.90 77.14 6.38L77.14 6.38L77.14 16.68Q77.14 17.14 76.81 17.45Q76.49 17.76 76.03 17.76L76.03 17.76ZM86.40 17.88Q83.47 17.88 81.83 16.21Q80.18 14.54 80.18 11.52L80.18 11.52Q80.18 9.82 80.81 8.38Q81.43 6.94 82.73 6.05Q84.02 5.16 85.92 5.16L85.92 5.16Q87.70 5.16 88.99 5.99Q90.29 6.82 90.96 8.20Q91.63 9.58 91.63 11.21L91.63 11.21Q91.63 11.66 91.33 11.98Q91.03 12.29 90.53 12.29L90.53 12.29L82.39 12.29Q82.58 13.97 83.64 14.90Q84.70 15.84 86.59 15.84L86.59 15.84Q87.60 15.84 88.36 15.65Q89.11 15.46 89.83 15.10L89.83 15.10Q90.02 15 90.26 15L90.26 15Q90.65 15 90.94 15.26Q91.22 15.53 91.22 15.94L91.22 15.94Q91.22 16.46 90.60 16.82L90.60 16.82Q89.66 17.35 88.75 17.62Q87.84 17.88 86.40 17.88L86.40 17.88ZM82.39 10.51L89.47 10.51Q89.40 9.34 88.86 8.54Q88.32 7.75 87.53 7.38Q86.74 7.01 85.92 7.01L85.92 7.01Q85.10 7.01 84.31 7.38Q83.52 7.75 82.99 8.54Q82.46 9.34 82.39 10.51L82.39 10.51ZM98.47 17.88Q96.07 17.88 94.10 16.80L94.10 16.80Q93.70 16.51 93.70 16.01L93.70 16.01Q93.70 15.62 93.96 15.34Q94.22 15.05 94.63 15.05L94.63 15.05Q94.85 15.05 95.06 15.14L95.06 15.14Q95.83 15.48 96.60 15.67Q97.37 15.86 98.33 15.86L98.33 15.86Q100.99 15.86 100.99 14.16L100.99 14.16Q100.99 13.61 100.38 13.32Q99.77 13.03 98.38 12.67L98.38 12.67Q96.96 12.34 96.04 11.98Q95.11 11.62 94.45 10.88Q93.79 10.15 93.79 8.95L93.79 8.95Q93.79 7.27 95.00 6.22Q96.22 5.16 98.47 5.16L98.47 5.16Q100.32 5.16 101.95 5.76L101.95 5.76Q102.29 5.86 102.47 6.12Q102.65 6.38 102.65 6.67L102.65 6.67Q102.65 7.06 102.37 7.34Q102.10 7.63 101.69 7.63L101.69 7.63Q101.57 7.63 101.38 7.58L101.38 7.58Q99.98 7.15 98.64 7.15L98.64 7.15Q97.34 7.15 96.61 7.62Q95.88 8.09 95.88 8.83L95.88 8.83Q95.88 9.55 96.55 9.89Q97.22 10.22 98.64 10.54L98.64 10.54Q100.06 10.90 100.94 11.24Q101.83 11.59 102.47 12.34Q103.10 13.08 103.10 14.33L103.10 14.33Q103.10 15.86 101.89 16.87Q100.68 17.88 98.47 17.88L98.47 17.88ZM111.50 17.88Q108.58 17.88 106.93 16.21Q105.29 14.54 105.29 11.52L105.29 11.52Q105.29 9.82 105.91 8.38Q106.54 6.94 107.83 6.05Q109.13 5.16 111.02 5.16L111.02 5.16Q112.80 5.16 114.10 5.99Q115.39 6.82 116.06 8.20Q116.74 9.58 116.74 11.21L116.74 11.21Q116.74 11.66 116.44 11.98Q116.14 12.29 115.63 12.29L115.63 12.29L107.50 12.29Q107.69 13.97 108.74 14.90Q109.80 15.84 111.70 15.84L111.70 15.84Q112.70 15.84 113.46 15.65Q114.22 15.46 114.94 15.10L114.94 15.10Q115.13 15 115.37 15L115.37 15Q115.75 15 116.04 15.26Q116.33 15.53 116.33 15.94L116.33 15.94Q116.33 16.46 115.70 16.82L115.70 16.82Q114.77 17.35 113.86 17.62Q112.94 17.88 111.50 17.88L111.50 17.88ZM107.50 10.51L114.58 10.51Q114.50 9.34 113.96 8.54Q113.42 7.75 112.63 7.38Q111.84 7.01 111.02 7.01L111.02 7.01Q110.21 7.01 109.42 7.38Q108.62 7.75 108.10 8.54Q107.57 9.34 107.50 10.51L107.50 10.51Z" transform="translate(0, 2.86)"></path><line x1="125.73599999999999" y1="2%" x2="125.73599999999999" y2="98%" stroke="#ff4a00" stroke-linecap="round"></line><g fill="#ffa500" color="#ffa500" transform="translate(134.736 0) scale(0.5576924)"><svg width="41.0" height="52.0" x="0.0" y="0.0" viewBox="0 0 41 52"><path fill="currentColor" fill-rule="nonzero" d="M31.7 3.62a7.516 7.516 0 0 0-9.58-1.39A10.273 10.273 0 0 0 14.18.09c-1.12.16-.64 1.78.48 1.78 2.11-.27 4.24.27 5.95 1.53-.27.22-.52.45-.77.69-2.01-.35-4.05-.47-6.09-.37-1.14 0-1.16 1.78 0 1.78 1.56-.07 3.12 0 4.66.21a12.21 12.21 0 0 0-2.01 4.17c-1.23 5.04-1.01 10.52-1.3 15.68-.28 5.16-.36 10.09-.27 15.17-2.78-.19-5.49-1-7.92-2.37a13.611 13.611 0 0 1-4.86-6.48c-.46-1.05-1.99-.14-1.55.89a14.46 14.46 0 0 0 9.83 8.79 19.303 19.303 0 0 0-8.56 6.85c-.71.89.55 2.15 1.25 1.26 3.38-4.29 6.98-7.5 12.71-7 1.63.15 3.26.2 4.9.16-.18 2.45-.24 4.91-.18 7.37h-.85c-.49 0-.89.4-.89.89s.4.89.89.89h5c.49 0 .89-.4.89-.89s-.4-.89-.89-.89h-2.37c0-2.49 0-4.98.18-7.48 4.88-.41 9.86-2.01 11.77-6.41 2.33-5.34 1.69-13.09 1.23-18.78-.38-4.67-.28-10.4-3.71-13.91zm1.1 31.2c-1.98 6.12-10.68 6.55-16.24 6.14v-7.39c2.85.55 6.53.12 8.39-2.39 2.17-2.99 1.3-7.85.71-11.2-.2-1.12-1.92-.66-1.78.46.5 2.72 1.1 6.23 0 8.9s-4.52 2.99-6.91 2.53a.785.785 0 0 0-.43 0c.09-3.56.25-7.12.46-10.68.23-3.95 0-8.17 1.3-12 1.5-4.72 7.76-8.81 12.02-4.27 3.31 3.56 3.1 10.36 3.33 14.99.24 4.63.63 10.35-.85 14.91zm6.61-19.98c1.14.07 1.14 1.85 0 1.78h-2.39c-.49 0-.89-.4-.89-.89s.4-.89.89-.89h2.39zm-10.38-3.38c-.61-.48-1.49-.38-1.98.23-.09.11-.16.24-.21.38-.46 1.69 1.92 1.9 2.76.93.33-.4.28-1-.13-1.33a.947.947 0 0 0-.44-.21z"></path></svg></g></svg>